PathFileType	4	(X/Y/Z)	pose_F01_0-95.trc
DataRate	CameraRate	NumFrames	NumMarkers	Units	OrigDataRate	OrigDataStartFrame	OrigNumFrames
30	30	7	21	m	30	47	95
Frame#	Time	CHip			RHip			RKnee			RAnkle			RBigToe			RSmallToe			RHeel			LHip			LKnee			LAnkle			LBigToe			LSmallToe			LHeel			Neck			Nose			RShoulder			RElbow			RWrist			LShoulder			LElbow			LWrist			
		X1	Y1	Z1	X2	Y2	Z2	X3	Y3	Z3	X4	Y4	Z4	X5	Y5	Z5	X6	Y6	Z6	X7	Y7	Z7	X8	Y8	Z8	X9	Y9	Z9	X10	Y10	Z10	X11	Y11	Z11	X12	Y12	Z12	X13	Y13	Z13	X14	Y14	Z14	X15	Y15	Z15	X16	Y16	Z16	X17	Y17	Z17	X18	Y18	Z18	X19	Y19	Z19	X20	Y20	Z20	X21	Y21	Z21	
47	1.5666666666666667	-0.15404379177230196	1.8371816358393422	-0.7262407983235009	-0.16478325474186167	1.8341164836331023	-0.6695891120778285	-0.16813271992445025	1.711063761803834	-0.6520854515936264	-0.15967609551015682	1.5924484280366074	-0.6511771146278811	-0.19666535716085407	1.5586403865915768	-0.5790205785973549	-0.1908799588229982	1.567167332501021	-0.5681629725172315	-0.15818130793798815	1.5791071506766847	-0.6638510008715669	-0.14212494287989716	1.840060011786833	-0.7825952889567779	-0.1532124387267068	1.7135735571176423	-0.7585401754280354	-0.14817229477024216	1.5756587910736932	-0.763598246065224	-0.2985645397551593	1.4752707737855277	-1.1676710168498805	-0.2835589874810264	1.4796399533944933	-1.1925735955731078	-0.13990773899031245	1.5630984668977885	-0.7617237741966553	-0.16643455248884287	1.9887475428522223	-0.7045387758270593	-0.20245212948230534	2.0185976395906815	-0.6008371698742924	-0.17608307311348725	1.9799747915070112	-0.6250061068697139	-0.1604906695905147	1.9038489604631124	-0.6289533658826393	-0.18637831039305208	1.8453992618934734	-0.559451281391155	-0.15209233232070954	1.9987364498829934	-0.782504754885543	-0.12325482647205886	1.925838717882924	-0.8594862729855661	-0.14230339697867975	1.8441287936166766	-0.8417428842657986
48	1.6	-0.1573113704626152	1.835898085918906	-0.7268870171601697	-0.170162545787192	1.8327733646671742	-0.6680303727491734	-0.17390484648928656	1.7082598664802517	-0.6498954189181846	-0.1620594792021562	1.5909505924650722	-0.6483679198724827	-0.19787184843780348	1.5605844053320743	-0.5821992411761999	-0.19091668548181237	1.5674981802635148	-0.5683620389159556	-0.15869515899732956	1.5792300971365274	-0.6629924358289913	-0.14411663949240835	1.8377606181994575	-0.7885430645509531	-0.15663039181283936	1.7056536155649102	-0.7661840843900377	-0.14945594570200102	1.5699765552380442	-0.7699205765888213	-0.2963814488879447	1.4717682874249791	-1.1716324864400223	-0.27902041737695144	1.4761513714276706	-1.2003014786808994	-0.1413814099621784	1.561101627833102	-0.7684936295324567	-0.16365244480141705	1.9902686022973537	-0.7154116234803505	-0.20333645727149563	2.0254603465452643	-0.6248090340239342	-0.1776766668116134	1.980117758782729	-0.6310078142281829	-0.16315853890790388	1.9060699576681222	-0.630221460041125	-0.18824011791597858	1.848075636684416	-0.5662754216982531	-0.1483591660231789	2.0005385445093267	-0.8019880058953563	-0.1224383507993886	1.9250251960870013	-0.8677676077883661	-0.14313616617966665	1.8417109702600676	-0.8443875522594269
49	1.6333333333333333	-0.16012369356834766	1.835628308787836	-0.7278486559718147	-0.17300357896473517	1.8326164777284455	-0.6688669129586312	-0.18207591246263838	1.7088578877948761	-0.6413613938583514	-0.1640495364540585	1.5922563062890769	-0.6466925076204028	-0.19645170253453345	1.5606335226893935	-0.5799128978537326	-0.19048981201647636	1.5701140003918646	-0.5694227626652827	-0.15863199888642768	1.5817500110318725	-0.6633829066537227	-0.14567074537339902	1.8364691668531024	-0.7946847218301828	-0.15494042369069783	1.707211976242475	-0.7721062682331354	-0.14915165358722954	1.5712169370499516	-0.7704547611163404	-0.2978427403852454	1.4710631875740332	-1.165055779591457	-0.27908946510460003	1.4729937078986808	-1.1994118608235642	-0.14144769237798613	1.5613123922809977	-0.7684606874587009	-0.16376436919102447	1.9929986986436456	-0.7274016472941957	-0.1999795257584706	2.0344540548041996	-0.6534748332912373	-0.17930697149070193	1.9853289474026985	-0.6380694172934998	-0.16581170919863372	1.9108691352624474	-0.631583648589875	-0.19243486812425628	1.8508977050068292	-0.5741567151369106	-0.1437345413692055	2.0011685536528816	-0.8179958776165575	-0.12164760393120494	1.9239043366303956	-0.8761347709693016	-0.14134615448737237	1.8430161164364722	-0.8501608842435432
50	1.6666666666666667	-0.164761883542803	1.8368080603176822	-0.72332797587727	-0.17974552727084683	1.8336815268301716	-0.6619525122316345	-0.1881654032514156	1.7087106906655007	-0.6307352660109656	-0.17524797128494668	1.5969493867161257	-0.6271101584444027	-0.2052208570649162	1.5613862938321192	-0.5706252905366901	-0.19979248031332447	1.5707262385067682	-0.5553236037605995	-0.17072898460430191	1.5891992524673786	-0.6474943115983363	-0.1531687009626932	1.838684787282187	-0.7910509181456148	-0.15302538189896833	1.7061952621651224	-0.7741242393388064	-0.14895137797005684	1.5730754321411549	-0.7711663464059648	-0.294156028413851	1.4722188232446674	-1.1750824436880136	-0.27659498933329524	1.475790715676799	-1.2029351442697376	-0.1413270009349114	1.5632973491526763	-0.7690694470586771	-0.16464033596527394	1.9956895983625325	-0.7307884407964572	-0.1977388600486793	2.040192911797367	-0.676523783242433	-0.18228427979788128	1.9889528164786066	-0.6391832814742362	-0.17458772990942834	1.9120566449273873	-0.6226098002115749	-0.20168544723468773	1.8518633539212617	-0.5771582632085596	-0.1428804245304916	2.002757742384649	-0.8263118940832462	-0.1223877194032887	1.922821849185304	-0.8789791931945353	-0.14242602746068164	1.8457298692043373	-0.8566708493524322
51	1.7	-0.16942021965523357	1.837967097417823	-0.7186961859573053	-0.18559397097968686	1.8347494542007659	-0.6521427767731399	-0.1919205267448276	1.7108799341189274	-0.614342758199734	-0.18743008441794573	1.5972549473335034	-0.6014606385978029	-0.21586081554466188	1.5628625821777442	-0.5507460914718959	-0.21207824783871218	1.570368182356653	-0.5334863058892794	-0.18129008644211828	1.5895703519121573	-0.6155317345237823	-0.15486669675089354	1.839831702573894	-0.7858023927733667	-0.15749108684676816	1.7056309594785386	-0.7695093778144272	-0.14729711505795798	1.5702780073031486	-0.7721157057737748	-0.18529365779487394	1.5336315157997096	-0.7308645293911525	-0.2813179531537743	1.473992238432771	-1.1943332045178332	-0.13940380199617905	1.559854462453735	-0.7703284402500578	-0.1675915331648477	1.9958054093919364	-0.731625822531772	-0.19196585439407993	2.0447820607037044	-0.706965744078122	-0.18733111973660216	1.9891289288215113	-0.637821425535084	-0.18019618911881816	1.913104025742031	-0.6127757143327107	-0.21023738577828938	1.8490774151905607	-0.567847031225408	-0.14363842060739002	2.002760774539296	-0.8294938787277013	-0.12472755466790993	1.9201342625612041	-0.8763167254934818	-0.14524944232048537	1.8430471807080393	-0.8538836240641159
52	1.7333333333333334	-0.1749255486196024	1.8375224868301536	-0.708733021339107	-0.18880033153122455	1.8357120903051392	-0.6444505539716084	-0.20082315800355616	1.7075467395816264	-0.595931699391884	-0.20116395258632874	1.5949586608134234	-0.560569485821245	-0.22409806971456825	1.5622970248404024	-0.5161884640276239	-0.22159953580724584	1.5715868823955819	-0.49301268279523275	-0.19618210581419968	1.5870956453975522	-0.5776918697543906	-0.15709590109526372	1.8384695642252065	-0.783196615623223	-0.15689771647424938	1.7065337342267908	-0.7661711938108473	-0.14941118820517285	1.5696491097409648	-0.7699075319922324	-0.2977409889930803	1.4746365333297529	-1.164503590822253	-0.2789445204032765	1.4751594382053739	-1.1992025585381034	-0.13945738745546146	1.5595983176977255	-0.7703318385310559	-0.16978605632480528	1.9971079650399246	-0.7290955719911935	-0.1938071356300246	2.0483203305703586	-0.7249095881730313	-0.19071390294547974	1.9917282986989486	-0.6304355475753085	-0.18780517676930342	1.9152784352020755	-0.6006798870620073	-0.21842956422341248	1.854001004032368	-0.559365916023932	-0.14595507659222248	2.003059190330819	-0.8271527121030271	-0.1265400102968261	1.9210813810305651	-0.8711135858162354	-0.14735695636525978	1.844210731544013	-0.8517540823742349
53	1.7666666666666666	-0.17836308166486523	1.838401833393633	-0.6889273746503393	-0.19303243867338724	1.8376389810228433	-0.6193826805368404	-0.20133182434319785	1.7081182816984906	-0.5694175719015406	-0.20275762961467522	1.5816457191733506	-0.5137281639921477	-0.2312382346302556	1.549582146047303	-0.48076746923187	-0.2254880094886181	1.5538891971440165	-0.4554746903529233	-0.19346219078319146	1.576112676068844	-0.5232099341796937	-0.16367740841594938	1.8401981599440913	-0.7529653405165302	-0.15779916554444834	1.7067250316290674	-0.7490208991592067	-0.14864729620744338	1.5660159337593826	-0.7666329461374235	-0.1836275020106643	1.531885276465234	-0.7365277434923895	-0.27891659723536066	1.4740999729062318	-1.1980628449651387	-0.13918118749142055	1.5578172728379849	-0.7704106763217917	-0.17392108147841037	1.9981323214577371	-0.7132736984923828	-0.19422825319391823	2.0482830430015806	-0.7362441960467208	-0.194508504811101	1.9937559561702225	-0.6148441328228766	-0.19077974171918938	1.9199066229495096	-0.57299005058169	-0.22004147881863548	1.8629029608197847	-0.5464292506736322	-0.1497637049113198	2.0007940713756303	-0.8078071786647762	-0.13315669018431175	1.9188702769949788	-0.8493540215287794	-0.15842146256499431	1.8403510302368389	-0.821786474667422
